<svg width="72" height="72" viewBox="0 0 24 24" fill="none" xmlns="http://www.w3.org/2000/svg" data-reactroot="">
<path fill="#C4B6FF" d="M17.5 19C18.8807 19 20 17.8807 20 16.5C20 15.1193 18.8807 14 17.5 14C16.1193 14 15 15.1193 15 16.5C15 17.8807 16.1193 19 17.5 19Z" undefined="1"></path>
<path fill="#C4B6FF" d="M6.5 22C7.88071 22 9 20.8807 9 19.5C9 18.1193 7.88071 17 6.5 17C5.11929 17 4 18.1193 4 19.5C4 20.8807 5.11929 22 6.5 22Z" undefined="1"></path>
<path fill="#C4B6FF" d="M17.5 15C16.6716 15 16 15.6716 16 16.5C16 17.3284 16.6716 18 17.5 18C18.3284 18 19 17.3284 19 16.5C19 15.6716 18.3284 15 17.5 15ZM14 16.5C14 14.567 15.567 13 17.5 13C19.433 13 21 14.567 21 16.5C21 18.433 19.433 20 17.5 20C15.567 20 14 18.433 14 16.5Z" clip-rule="evenodd" fill-rule="evenodd" undefined="1"></path>
<path fill="#C4B6FF" d="M6.5 18C5.67157 18 5 18.6716 5 19.5C5 20.3284 5.67157 21 6.5 21C7.32843 21 8 20.3284 8 19.5C8 18.6716 7.32843 18 6.5 18ZM3 19.5C3 17.567 4.567 16 6.5 16C8.433 16 10 17.567 10 19.5C10 21.433 8.433 23 6.5 23C4.567 23 3 21.433 3 19.5Z" clip-rule="evenodd" fill-rule="evenodd" undefined="1"></path>
<path fill="#C4B6FF" d="M20 1C20.5523 1 21 1.44772 21 2V16.5C21 17.0523 20.5523 17.5 20 17.5C19.4477 17.5 19 17.0523 19 16.5V2C19 1.44772 19.4477 1 20 1Z" clip-rule="evenodd" fill-rule="evenodd" undefined="1"></path>
<path fill="#C4B6FF" d="M9 4C9.55228 4 10 4.44772 10 5V19.5C10 20.0523 9.55228 20.5 9 20.5C8.44772 20.5 8 20.0523 8 19.5V5C8 4.44772 8.44772 4 9 4Z" clip-rule="evenodd" fill-rule="evenodd" undefined="1"></path>
<path fill="#C4B6FF" d="M20.9648 1.73689C21.1101 2.26971 20.7959 2.81945 20.2631 2.96477L9.26312 5.96477C8.7303 6.11009 8.18056 5.79595 8.03524 5.26312C7.88993 4.7303 8.20406 4.18056 8.73689 4.03524L19.7369 1.03524C20.2697 0.889927 20.8195 1.20406 20.9648 1.73689Z" clip-rule="evenodd" fill-rule="evenodd" undefined="1"></path>
</svg>

